<svg width="28" height="29" viewBox="0 0 28 29" fill="none" xmlns="http://www.w3.org/2000/svg">
<path d="M23.7498 27.2357C24.8267 27.2357 25.6998 26.3745 25.6998 25.3123C25.6998 24.2501 24.8267 23.3889 23.7498 23.3889C22.6729 23.3889 21.7998 24.2501 21.7998 25.3123C21.7998 26.3745 22.6729 27.2357 23.7498 27.2357Z" stroke="white" stroke-width="2" stroke-linecap="round" stroke-linejoin="round"/>
<path d="M10.7498 27.2357C11.8267 27.2357 12.6998 26.3745 12.6998 25.3123C12.6998 24.2501 11.8267 23.3889 10.7498 23.3889C9.67285 23.3889 8.7998 24.2501 8.7998 25.3123C8.7998 26.3745 9.67285 27.2357 10.7498 27.2357Z" stroke="white" stroke-width="2" stroke-linecap="round" stroke-linejoin="round"/>
<path d="M4.9 4.1551H27L24.4 18.26H7.5L4.9 4.1551ZM4.9 4.1551C4.68333 3.30025 3.6 1.59058 1 1.59058" stroke="white" stroke-width="2" stroke-linecap="round" stroke-linejoin="round"/>
<path d="M24.4004 18.26H7.50039H5.20039C2.88079 18.26 1.65039 19.2617 1.65039 20.8245C1.65039 22.3873 2.88079 23.3891 5.20039 23.3891H23.7504" stroke="white" stroke-width="2" stroke-linecap="round" stroke-linejoin="round"/>
</svg>
