<svg width="28" height="28" viewBox="0 0 28 28" fill="none" xmlns="http://www.w3.org/2000/svg">
<path d="M23.7498 26.6451C24.8267 26.6451 25.6998 25.784 25.6998 24.7217C25.6998 23.6595 24.8267 22.7983 23.7498 22.7983C22.6729 22.7983 21.7998 23.6595 21.7998 24.7217C21.7998 25.784 22.6729 26.6451 23.7498 26.6451Z" stroke="#C6922B" stroke-width="2" stroke-linecap="round" stroke-linejoin="round"/>
<path d="M10.7498 26.6451C11.8267 26.6451 12.6998 25.784 12.6998 24.7217C12.6998 23.6595 11.8267 22.7983 10.7498 22.7983C9.67285 22.7983 8.7998 23.6595 8.7998 24.7217C8.7998 25.784 9.67285 26.6451 10.7498 26.6451Z" stroke="#C6922B" stroke-width="2" stroke-linecap="round" stroke-linejoin="round"/>
<path d="M4.9 3.56452H27L24.4 17.6694H7.5L4.9 3.56452ZM4.9 3.56452C4.68333 2.70968 3.6 1 1 1" stroke="#C6922B" stroke-width="2" stroke-linecap="round" stroke-linejoin="round"/>
<path d="M24.4004 17.6694H7.50039H5.20039C2.88079 17.6694 1.65039 18.6711 1.65039 20.234C1.65039 21.7968 2.88079 22.7985 5.20039 22.7985H23.7504" stroke="#C6922B" stroke-width="2" stroke-linecap="round" stroke-linejoin="round"/>
</svg>
