<svg width="25" height="25" viewBox="0 0 25 25" fill="none" xmlns="http://www.w3.org/2000/svg">
<g clip-path="url(#clip0_19_2042)">
<path d="M25 12.5C25 15.8152 23.683 18.9946 21.3388 21.3388C18.9946 23.683 15.8152 25 12.5 25C9.18479 25 6.00537 23.683 3.66117 21.3388C1.31696 18.9946 0 15.8152 0 12.5C0 9.18479 1.31696 6.00537 3.66117 3.66117C6.00537 1.31696 9.18479 0 12.5 0C15.8152 0 18.9946 1.31696 21.3388 3.66117C23.683 6.00537 25 9.18479 25 12.5ZM10.6094 7.95781C10.4926 7.87464 10.3551 7.82522 10.2121 7.81498C10.069 7.80473 9.92593 7.83405 9.79845 7.89973C9.67097 7.96541 9.56403 8.0649 9.48934 8.18732C9.41465 8.30974 9.37509 8.45035 9.375 8.59375V16.4062C9.37509 16.5497 9.41465 16.6903 9.48934 16.8127C9.56403 16.9351 9.67097 17.0346 9.79845 17.1003C9.92593 17.1659 10.069 17.1953 10.2121 17.185C10.3551 17.1748 10.4926 17.1254 10.6094 17.0422L16.0781 13.1359C16.1794 13.0637 16.2619 12.9683 16.3189 12.8576C16.3759 12.747 16.4056 12.6244 16.4056 12.5C16.4056 12.3756 16.3759 12.253 16.3189 12.1424C16.2619 12.0317 16.1794 11.9363 16.0781 11.8641L10.6094 7.95781Z" fill="white"/>
</g>
<defs>
<clipPath id="clip0_19_2042">
<rect width="25" height="25" fill="white"/>
</clipPath>
</defs>
</svg>
