<svg width="25" height="25" viewBox="0 0 25 25" fill="none" xmlns="http://www.w3.org/2000/svg">
<g clip-path="url(#clip0_19_2044)">
<path d="M0 12.5C0 15.8152 1.31696 18.9946 3.66117 21.3388C6.00537 23.683 9.18479 25 12.5 25C15.8152 25 18.9946 23.683 21.3388 21.3388C23.683 18.9946 25 15.8152 25 12.5C25 9.18479 23.683 6.00537 21.3388 3.66117C18.9946 1.31696 15.8152 0 12.5 0C9.18479 0 6.00537 1.31696 3.66117 3.66117C1.31696 6.00537 0 9.18479 0 12.5ZM14.3906 7.95781C14.5074 7.87464 14.6449 7.82522 14.7879 7.81498C14.931 7.80473 15.0741 7.83405 15.2015 7.89973C15.329 7.96541 15.436 8.0649 15.5107 8.18732C15.5854 8.30974 15.6249 8.45035 15.625 8.59375V16.4062C15.6249 16.5497 15.5854 16.6903 15.5107 16.8127C15.436 16.9351 15.329 17.0346 15.2015 17.1003C15.0741 17.1659 14.931 17.1953 14.7879 17.185C14.6449 17.1748 14.5074 17.1254 14.3906 17.0422L8.92188 13.1359C8.8206 13.0637 8.73805 12.9683 8.6811 12.8576C8.62414 12.747 8.59443 12.6244 8.59443 12.5C8.59443 12.3756 8.62414 12.253 8.6811 12.1424C8.73805 12.0317 8.8206 11.9363 8.92188 11.8641L14.3906 7.95781Z" fill="white"/>
</g>
<defs>
<clipPath id="clip0_19_2044">
<rect width="25" height="25" fill="white" transform="matrix(-1 0 0 1 25 0)"/>
</clipPath>
</defs>
</svg>
