<svg width="36" height="36" viewBox="0 0 36 36" fill="none" xmlns="http://www.w3.org/2000/svg">
<g clip-path="url(#clip0_13_3178)">
<path d="M35.6494 18.4146C35.6494 17.191 35.5502 15.9608 35.3385 14.7571H18.3604V21.6886H28.083C27.6795 23.9241 26.3831 25.9017 24.4849 27.1583V31.6558H30.2854C33.6916 28.5208 35.6494 23.891 35.6494 18.4146Z" fill="#4285F4"/>
<path d="M18.3597 36.0012C23.2143 36.0012 27.3084 34.4073 30.2913 31.6558L24.4908 27.1583C22.877 28.2562 20.7936 28.878 18.3663 28.878C13.6703 28.878 9.68871 25.7099 8.26008 21.4504H2.27441V26.0869C5.33008 32.1651 11.5539 36.0012 18.3597 36.0012Z" fill="#34A853"/>
<path d="M8.25416 21.4503C7.50016 19.2148 7.50016 16.7941 8.25416 14.5585V9.92212H2.2751C-0.277899 15.0083 -0.277899 21.0006 2.2751 26.0867L8.25416 21.4503Z" fill="#FBBC04"/>
<path d="M18.3597 7.12449C20.9259 7.08481 23.4061 8.05045 25.2647 9.823L30.4038 4.68392C27.1497 1.62826 22.8307 -0.051699 18.3597 0.001213C11.5539 0.001213 5.33008 3.83733 2.27441 9.92221L8.25347 14.5586C9.67548 10.2926 13.6637 7.12449 18.3597 7.12449Z" fill="#EA4335"/>
</g>
<defs>
<clipPath id="clip0_13_3178">
<rect width="36" height="36" fill="white"/>
</clipPath>
</defs>
</svg>
