<svg width="22" height="20" viewBox="0 0 22 20" fill="none" xmlns="http://www.w3.org/2000/svg">
<path d="M18.775 12.6857C20.0668 11.2027 20.75 9.8876 20.75 9.8876C20.75 9.8876 17.159 2.9751 10.875 2.9751C10.5381 2.9751 10.2088 2.99498 9.88749 3.03259C9.54957 3.07215 9.22034 3.13134 8.89999 3.20767" stroke="#7B7575" stroke-width="1.5" stroke-linecap="round" stroke-linejoin="round"/>
<path d="M10.875 6.92505C11.2212 6.92505 11.5536 6.98445 11.8625 7.09362C12.7042 7.39114 13.3714 8.0583 13.6689 8.90005C13.7781 9.20894 13.8375 9.54133 13.8375 9.88755" stroke="#7B7575" stroke-width="1.5" stroke-linecap="round" stroke-linejoin="round"/>
<path d="M1.9875 1L19.7625 18.775" stroke="#7B7575" stroke-width="1.5" stroke-linecap="round" stroke-linejoin="round"/>
<path d="M10.8752 12.8501C10.529 12.8501 10.1966 12.7907 9.88769 12.6815C9.04595 12.384 8.37877 11.7168 8.08126 10.8751C8.02513 10.7163 7.98215 10.5513 7.95364 10.3813" stroke="#7B7575" stroke-width="1.5" stroke-linecap="round" stroke-linejoin="round"/>
<path d="M3.12017 6.92505C2.81579 7.26525 2.54281 7.59893 2.30216 7.91255C1.4472 9.02665 1 9.88755 1 9.88755C1 9.88755 4.59091 16.8 10.875 16.8C11.2119 16.8 11.5412 16.7802 11.8625 16.7426" stroke="#7B7575" stroke-width="1.5" stroke-linecap="round" stroke-linejoin="round"/>
</svg>
