<svg width="211" height="46" viewBox="0 0 211 46" fill="none" xmlns="http://www.w3.org/2000/svg">
<g clip-path="url(#clip0_19_2032)">
<path d="M128.085 22.585C128.085 28.575 125.706 34.3196 121.47 38.5551C117.235 42.7906 111.49 45.1701 105.5 45.1701C99.5102 45.1701 93.7656 42.7906 89.53 38.5551C85.2945 34.3196 82.915 28.575 82.915 22.585C82.915 16.5951 85.2945 10.8505 89.53 6.61501C93.7656 2.37949 99.5102 0 105.5 0C111.49 0 117.235 2.37949 121.47 6.61501C125.706 10.8505 128.085 16.5951 128.085 22.585ZM102.084 14.3782C101.873 14.2279 101.625 14.1386 101.366 14.1201C101.108 14.1016 100.849 14.1546 100.619 14.2733C100.389 14.3919 100.195 14.5717 100.06 14.7929C99.9255 15.0141 99.854 15.2681 99.8538 15.5272V29.6429C99.854 29.902 99.9255 30.156 100.06 30.3772C100.195 30.5984 100.389 30.7782 100.619 30.8968C100.849 31.0155 101.108 31.0685 101.366 31.05C101.625 31.0314 101.873 30.9422 102.084 30.7919L111.965 23.7341C112.148 23.6035 112.297 23.4311 112.4 23.2312C112.503 23.0314 112.557 22.8098 112.557 22.585C112.557 22.3603 112.503 22.1387 112.4 21.9389C112.297 21.739 112.148 21.5666 111.965 21.436L102.084 14.3782Z" fill="white"/>
</g>
<path opacity="0.9" d="M153.145 6.12988C144.104 6.12988 136.748 13.3854 136.748 22.3035C136.748 31.2216 144.104 38.4771 153.145 38.4771C162.187 38.4771 169.543 31.2216 169.543 22.3035C169.543 13.3854 162.187 6.12988 153.145 6.12988ZM159.704 28.7729H156.425V22.3035L146.586 28.7729V15.834L156.425 22.3035V15.834H159.704V28.7729Z" fill="white"/>
<path opacity="0.9" d="M57.8544 6.12988C48.8129 6.12988 41.457 13.3854 41.457 22.3035C41.457 31.2216 48.8129 38.4771 57.8544 38.4771C66.8975 38.4771 74.2518 31.2216 74.2518 22.3035C74.2518 13.3854 66.8975 6.12988 57.8544 6.12988ZM64.4133 28.7729L54.5749 22.3035V28.7729H51.2954V15.834H54.5749V22.3035L64.4133 15.834V28.7729Z" fill="white"/>
<circle opacity="0.9" cx="194.602" cy="22.5851" r="16.3974" fill="white"/>
<g opacity="0.9">
<circle cx="16.3974" cy="22.5851" r="16.3974" fill="white"/>
<path d="M9.28125 26.7265V29.7777H12.3747L21.4982 20.7786L18.4048 17.7274L9.28125 26.7265ZM23.8904 18.419C23.9669 18.3438 24.0276 18.2544 24.069 18.1559C24.1104 18.0575 24.1317 17.952 24.1317 17.8454C24.1317 17.7389 24.1104 17.6333 24.069 17.5349C24.0276 17.4365 23.9669 17.3471 23.8904 17.2718L21.9602 15.3678C21.8838 15.2924 21.7932 15.2326 21.6934 15.1917C21.5936 15.1509 21.4866 15.1299 21.3786 15.1299C21.2706 15.1299 21.1636 15.1509 21.0638 15.1917C20.964 15.2326 20.8733 15.2924 20.797 15.3678L19.2874 16.8568L22.3809 19.908L23.8904 18.419Z" fill="black"/>
</g>
<path d="M196.421 30.6087H193.403C193.214 30.6087 193.031 30.5445 192.884 30.4267C192.736 30.3089 192.634 30.1446 192.593 29.961L192.256 28.4087C191.806 28.2127 191.379 27.9676 190.983 27.6779L189.46 28.1599C189.28 28.217 189.086 28.2112 188.909 28.1433C188.733 28.0754 188.585 27.9495 188.49 27.7867L186.978 25.1904C186.884 25.0274 186.849 24.8376 186.878 24.6522C186.907 24.4667 186.999 24.2966 187.138 24.1696L188.319 23.0985C188.266 22.6132 188.266 22.1236 188.319 21.6384L187.138 20.5698C186.999 20.4427 186.907 20.2724 186.878 20.0868C186.849 19.9012 186.884 19.7112 186.978 19.5481L188.487 16.9502C188.582 16.7873 188.729 16.6615 188.906 16.5936C189.082 16.5257 189.277 16.5198 189.457 16.577L190.98 17.059C191.182 16.9107 191.393 16.7723 191.61 16.647C191.82 16.53 192.035 16.4237 192.256 16.329L192.594 14.7783C192.635 14.5947 192.737 14.4304 192.884 14.3124C193.031 14.1945 193.214 14.1301 193.403 14.1299H196.421C196.61 14.1301 196.794 14.1945 196.941 14.3124C197.088 14.4304 197.19 14.5947 197.231 14.7783L197.572 16.3298C198.022 16.5269 198.448 16.772 198.845 17.0606L200.369 16.5786C200.549 16.5217 200.743 16.5277 200.919 16.5956C201.096 16.6635 201.243 16.7892 201.338 16.9519L202.847 19.5498C203.039 19.8851 202.973 20.3094 202.687 20.5706L201.505 21.6417C201.559 22.1269 201.559 22.6165 201.505 23.1017L202.687 24.1729C202.973 24.4349 203.039 24.8584 202.847 25.1937L201.338 27.7916C201.243 27.9545 201.096 28.0803 200.919 28.1482C200.743 28.2161 200.548 28.222 200.368 28.1649L198.845 27.6828C198.449 27.9723 198.023 28.2172 197.573 28.4129L197.231 29.961C197.19 30.1445 197.088 30.3087 196.941 30.4264C196.794 30.5442 196.61 30.6085 196.421 30.6087ZM194.909 19.0735C194.03 19.0735 193.186 19.4207 192.564 20.0388C191.942 20.6569 191.593 21.4952 191.593 22.3693C191.593 23.2434 191.942 24.0816 192.564 24.6997C193.186 25.3178 194.03 25.665 194.909 25.665C195.789 25.665 196.632 25.3178 197.254 24.6997C197.876 24.0816 198.225 23.2434 198.225 22.3693C198.225 21.4952 197.876 20.6569 197.254 20.0388C196.632 19.4207 195.789 19.0735 194.909 19.0735Z" fill="black"/>
<defs>
<clipPath id="clip0_19_2032">
<rect width="45.1701" height="45.1701" fill="white" transform="translate(82.915)"/>
</clipPath>
</defs>
</svg>
