<svg width="380" height="61" viewBox="0 0 380 61" fill="none" xmlns="http://www.w3.org/2000/svg">
<rect width="113" height="61" rx="12" fill="#1877F2"/>
<rect x="127" width="118" height="61" rx="12" fill="white"/>
<rect x="259" width="121" height="61" rx="12" fill="black"/>
<path d="M69 31.0733C69 24.4054 63.6274 19 57 19C50.3726 19 45 24.4054 45 31.0733C45 37.0995 49.3882 42.0943 55.125 43V34.5633H52.0781V31.0733H55.125V28.4134C55.125 25.3875 56.9165 23.7161 59.6576 23.7161C60.9705 23.7161 62.3438 23.952 62.3438 23.952V26.9231H60.8306C59.3399 26.9231 58.875 27.8538 58.875 28.8086V31.0733H62.2031L61.6711 34.5633H58.875V43C64.6118 42.0943 69 37.0995 69 31.0733Z" fill="white"/>
<path fill-rule="evenodd" clip-rule="evenodd" d="M197.52 31.2724C197.52 30.4215 197.443 29.6033 197.302 28.8179H186V33.4596H192.458C192.18 34.9596 191.334 36.2305 190.063 37.0814V40.0922H193.942C196.211 38.0032 197.52 34.9269 197.52 31.2724Z" fill="#4285F4"/>
<path fill-rule="evenodd" clip-rule="evenodd" d="M186 42.9994C189.24 42.9994 191.956 41.9249 193.941 40.0922L190.063 37.0813C188.989 37.8013 187.614 38.2267 186 38.2267C182.874 38.2267 180.229 36.1159 179.285 33.2795H175.276V36.3886C177.251 40.3103 181.309 42.9994 186 42.9994Z" fill="#34A853"/>
<path fill-rule="evenodd" clip-rule="evenodd" d="M179.285 33.2798C179.045 32.5598 178.909 31.7907 178.909 30.9998C178.909 30.209 179.045 29.4399 179.285 28.7199V25.6108H175.276C174.464 27.2308 174 29.0635 174 30.9998C174 32.9362 174.464 34.7689 175.276 36.3889L179.285 33.2798Z" fill="#FBBC05"/>
<path fill-rule="evenodd" clip-rule="evenodd" d="M186 23.7727C187.761 23.7727 189.343 24.3781 190.587 25.5672L194.029 22.1254C191.95 20.1891 189.234 19 186 19C181.309 19 177.251 21.6891 175.276 25.6108L179.285 28.7199C180.229 25.8835 182.874 23.7727 186 23.7727Z" fill="#EA4335"/>
<path d="M329.56 36.924C329.183 37.7275 328.737 38.4672 328.219 39.1472C327.515 40.0743 326.938 40.716 326.493 41.0724C325.803 41.6573 325.065 41.9569 324.274 41.9739C323.706 41.9739 323.021 41.8248 322.224 41.5224C321.424 41.2214 320.689 41.0724 320.017 41.0724C319.312 41.0724 318.556 41.2214 317.748 41.5224C316.938 41.8248 316.286 41.9824 315.787 41.998C315.028 42.0278 314.272 41.7198 313.518 41.0724C313.036 40.6848 312.433 40.0204 311.712 39.0791C310.937 38.0739 310.301 36.9084 309.802 35.5795C309.268 34.1442 309 32.7543 309 31.4087C309 29.8673 309.361 28.5379 310.084 27.4239C310.652 26.529 311.409 25.8231 312.355 25.3049C313.301 24.7867 314.324 24.5227 315.425 24.5058C316.027 24.5058 316.817 24.6777 317.799 25.0156C318.778 25.3546 319.407 25.5266 319.682 25.5266C319.888 25.5266 320.587 25.3255 321.771 24.9247C322.89 24.5531 323.835 24.3992 324.609 24.4598C326.707 24.6159 328.283 25.3788 329.331 26.753C327.455 27.8016 326.527 29.2703 326.545 31.1544C326.562 32.622 327.139 33.8432 328.273 34.8129C328.787 35.2629 329.361 35.6108 330 35.8578C329.861 36.2283 329.715 36.5833 329.56 36.924ZM324.749 19.4601C324.749 20.6104 324.294 21.6844 323.386 22.6785C322.29 23.8602 320.965 24.5431 319.528 24.4354C319.509 24.2974 319.499 24.1521 319.499 23.9995C319.499 22.8953 320.02 21.7135 320.945 20.7472C321.407 20.258 321.995 19.8512 322.707 19.5267C323.418 19.2071 324.091 19.0303 324.723 19C324.742 19.1538 324.749 19.3076 324.749 19.4601V19.4601Z" fill="white"/>
</svg>
