<svg width="65" height="65" viewBox="0 0 65 65" fill="none" xmlns="http://www.w3.org/2000/svg">
<path d="M19.8577 32.4999C19.8577 39.4822 25.5181 45.1426 32.5005 45.1426C39.4828 45.1426 45.1432 39.4822 45.1432 32.4999C45.1432 25.5173 39.4828 19.8569 32.5005 19.8569C25.5181 19.8569 19.8577 25.5173 19.8577 32.4999Z" stroke="#E3E3E3" stroke-width="5" stroke-linecap="round" stroke-linejoin="round"/>
<path d="M45.1427 32.5V36.7142C45.1427 41.3693 48.9164 45.1427 53.5715 45.1427C56.5615 45.1427 59.1883 43.5858 60.6843 41.2379C61.5175 39.931 62 38.379 62 36.7142V32.5C62 16.2076 48.7925 3 32.5 3C16.2076 3 3 16.2076 3 32.5C3 48.7925 16.2076 62 32.5 62C38.7678 62 44.5789 60.0455 49.3573 56.7123" stroke="#E3E3E3" stroke-width="5" stroke-linecap="round" stroke-linejoin="round"/>
</svg>
