<svg width="32" height="32" viewBox="0 0 32 32" fill="none" xmlns="http://www.w3.org/2000/svg">
<g clip-path="url(#clip0_19_827)">
<path d="M15.9992 31.9984C24.8353 31.9984 31.9984 24.8353 31.9984 15.9992C31.9984 7.16309 24.8353 0 15.9992 0C7.16309 0 0 7.16309 0 15.9992C0 24.8353 7.16309 31.9984 15.9992 31.9984Z" fill="white"/>
<path d="M20.0332 17.2149C20.7049 17.2149 21.2679 16.943 21.6614 16.4296C22.0868 15.8746 22.3108 15.0428 22.3108 14.024C22.3108 11.0762 21.3111 9.78868 18.1954 8.72026C17.2086 8.38597 14.9885 7.69661 13.3203 7.35913V23.5551L16.612 24.5995V10.9531C16.612 10.1086 17.0854 9.58555 17.6884 9.78548C18.5905 10.035 18.5905 11.057 18.5905 11.4425V16.871C19.1023 17.0981 19.5869 17.2149 20.0332 17.2149Z" fill="#1C1F2A"/>
<path d="M27.1794 20.5897C27.3217 20.4105 27.3665 20.225 27.3105 20.0411C27.2417 19.8155 26.9474 19.3805 25.7671 19.0062C24.2988 18.4496 22.2851 18.2161 20.636 18.3936C19.0446 18.5696 17.8914 18.9726 17.8786 18.9774L17.8066 19.0014V20.7544L21.5253 19.4445C22.2387 19.1886 23.3423 19.131 23.9389 19.3261C24.3675 19.4669 24.4603 19.6924 24.4619 19.8571C24.4635 20.0539 24.3356 20.3338 23.7102 20.5577L17.8066 22.6625V24.334L25.7239 21.4917C25.7335 21.4885 26.7747 21.0999 27.1794 20.5897Z" fill="#1C1F2A"/>
<path d="M12.109 17.4819L7.02278 19.2893C7.00519 19.2957 5.73843 19.7164 5.00749 20.257C4.74838 20.4489 4.63162 20.6856 4.6748 20.9239C4.75638 21.3686 5.33857 21.7828 6.22946 22.0339C8.09281 22.6497 10.0473 22.8065 11.9363 22.4962L12.1074 22.4674V21.0535L10.5639 21.6133C9.85059 21.8692 8.74538 21.9268 8.14879 21.7316C7.72014 21.5909 7.62737 21.3654 7.62577 21.2006C7.62257 21.0039 7.75213 20.724 8.37911 20.4985L12.109 19.1629V17.4819Z" fill="#1C1F2A"/>
</g>
<defs>
<clipPath id="clip0_19_827">
<rect width="32" height="31.9984" fill="white"/>
</clipPath>
</defs>
</svg>
