<svg width="36" height="36" viewBox="0 0 36 36" fill="none" xmlns="http://www.w3.org/2000/svg">
<g clip-path="url(#clip0_13_3310)">
<path d="M18 36C27.9411 36 36 27.9411 36 18C36 8.05887 27.9411 0 18 0C8.05887 0 0 8.05887 0 18C0 27.9411 8.05887 36 18 36Z" fill="#FF4500"/>
<path d="M29.9999 18C29.9999 16.5474 28.8209 15.3684 27.3683 15.3684C26.6525 15.3684 26.0209 15.6421 25.5578 16.1053C23.7683 14.821 21.2841 13.9789 18.5473 13.8737L19.7473 8.25263L23.642 9.07368C23.6841 10.0632 24.5052 10.8632 25.5157 10.8632C26.5473 10.8632 27.3894 10.021 27.3894 8.98947C27.3894 7.95789 26.5473 7.11578 25.5157 7.11578C24.7788 7.11578 24.1473 7.53684 23.8525 8.16842L19.4946 7.2421C19.3683 7.22105 19.242 7.2421 19.1367 7.30526C19.0315 7.36842 18.9683 7.47368 18.9262 7.59999L17.5999 13.8737C14.7999 13.9579 12.2946 14.7789 10.4841 16.1053C10.0209 15.6632 9.36831 15.3684 8.67357 15.3684C7.22094 15.3684 6.04199 16.5474 6.04199 18C6.04199 19.0737 6.67357 19.9789 7.59989 20.4C7.55778 20.6526 7.53673 20.9263 7.53673 21.2C7.53673 25.2421 12.2315 28.5053 18.042 28.5053C23.8525 28.5053 28.5473 25.2421 28.5473 21.2C28.5473 20.9263 28.5262 20.6737 28.4841 20.421C29.3473 20 29.9999 19.0737 29.9999 18ZM11.9999 19.8737C11.9999 18.8421 12.842 18 13.8736 18C14.9052 18 15.7473 18.8421 15.7473 19.8737C15.7473 20.9053 14.9052 21.7474 13.8736 21.7474C12.842 21.7474 11.9999 20.9053 11.9999 19.8737ZM22.463 24.821C21.1788 26.1053 18.7367 26.1895 18.0209 26.1895C17.3052 26.1895 14.842 26.0842 13.5788 24.821C13.3894 24.6316 13.3894 24.3158 13.5788 24.1263C13.7683 23.9368 14.0841 23.9368 14.2736 24.1263C15.0736 24.9263 16.7999 25.221 18.042 25.221C19.2841 25.221 20.9894 24.9263 21.8104 24.1263C21.9999 23.9368 22.3157 23.9368 22.5052 24.1263C22.6525 24.3368 22.6525 24.6316 22.463 24.821ZM22.1262 21.7474C21.0946 21.7474 20.2525 20.9053 20.2525 19.8737C20.2525 18.8421 21.0946 18 22.1262 18C23.1578 18 23.9999 18.8421 23.9999 19.8737C23.9999 20.9053 23.1578 21.7474 22.1262 21.7474Z" fill="white"/>
</g>
<defs>
<clipPath id="clip0_13_3310">
<rect width="36" height="36" fill="white"/>
</clipPath>
</defs>
</svg>
