<svg width="36" height="36" viewBox="0 0 36 36" fill="none" xmlns="http://www.w3.org/2000/svg">
<g clip-path="url(#clip0_13_3177)">
<path d="M18 36C27.9411 36 36 27.9411 36 18C36 8.05887 27.9411 0 18 0C8.05887 0 0 8.05887 0 18C0 27.9411 8.05887 36 18 36Z" fill="#FF4500"/>
<path d="M29.9999 17.9999C29.9999 16.5473 28.8209 15.3684 27.3683 15.3684C26.6525 15.3684 26.0209 15.642 25.5578 16.1052C23.7683 14.821 21.2841 13.9789 18.5473 13.8736L19.7473 8.25257L23.642 9.07362C23.6841 10.0631 24.5052 10.8631 25.5157 10.8631C26.5473 10.8631 27.3894 10.021 27.3894 8.98941C27.3894 7.95783 26.5473 7.11572 25.5157 7.11572C24.7788 7.11572 24.1473 7.53678 23.8525 8.16835L19.4946 7.24204C19.3683 7.22099 19.242 7.24204 19.1367 7.3052C19.0315 7.36835 18.9683 7.47362 18.9262 7.59993L17.5999 13.8736C14.7999 13.9578 12.2946 14.7789 10.4841 16.1052C10.0209 15.6631 9.36831 15.3684 8.67357 15.3684C7.22094 15.3684 6.04199 16.5473 6.04199 17.9999C6.04199 19.0736 6.67357 19.9789 7.59989 20.3999C7.55778 20.6526 7.53673 20.9263 7.53673 21.1999C7.53673 25.242 12.2315 28.5052 18.042 28.5052C23.8525 28.5052 28.5473 25.242 28.5473 21.1999C28.5473 20.9263 28.5262 20.6736 28.4841 20.421C29.3473 19.9999 29.9999 19.0736 29.9999 17.9999ZM11.9999 19.8736C11.9999 18.842 12.842 17.9999 13.8736 17.9999C14.9052 17.9999 15.7473 18.842 15.7473 19.8736C15.7473 20.9052 14.9052 21.7473 13.8736 21.7473C12.842 21.7473 11.9999 20.9052 11.9999 19.8736ZM22.463 24.821C21.1788 26.1052 18.7367 26.1894 18.0209 26.1894C17.3052 26.1894 14.842 26.0841 13.5788 24.821C13.3894 24.6315 13.3894 24.3157 13.5788 24.1263C13.7683 23.9368 14.0841 23.9368 14.2736 24.1263C15.0736 24.9263 16.7999 25.221 18.042 25.221C19.2841 25.221 20.9894 24.9263 21.8104 24.1263C21.9999 23.9368 22.3157 23.9368 22.5052 24.1263C22.6525 24.3368 22.6525 24.6315 22.463 24.821ZM22.1262 21.7473C21.0946 21.7473 20.2525 20.9052 20.2525 19.8736C20.2525 18.842 21.0946 17.9999 22.1262 17.9999C23.1578 17.9999 23.9999 18.842 23.9999 19.8736C23.9999 20.9052 23.1578 21.7473 22.1262 21.7473Z" fill="white"/>
</g>
<defs>
<clipPath id="clip0_13_3177">
<rect width="36" height="36" fill="white"/>
</clipPath>
</defs>
</svg>
