<svg width="36" height="36" viewBox="0 0 36 36" fill="none" xmlns="http://www.w3.org/2000/svg">
<path d="M11.3213 32.626C24.9062 32.626 32.3366 21.371 32.3366 11.6107C32.3366 11.291 32.3366 10.9727 32.315 10.6559C33.7606 9.61037 35.0084 8.31576 36 6.83274C34.6521 7.43034 33.2221 7.82207 31.7578 7.99482C33.2997 7.07185 34.4537 5.61999 35.005 3.90954C33.5551 4.76995 31.969 5.37628 30.3149 5.70234C29.2013 4.5182 27.7284 3.7341 26.1243 3.47136C24.5201 3.20863 22.8741 3.48191 21.441 4.24892C20.0078 5.01593 18.8673 6.2339 18.1961 7.71436C17.5249 9.19482 17.3603 10.8552 17.7278 12.4387C14.7913 12.2914 11.9186 11.5282 9.29618 10.1987C6.67373 8.86929 4.36015 7.00323 2.5056 4.7217C1.56109 6.34769 1.27181 8.27254 1.69665 10.1043C2.12149 11.9361 3.22851 13.5371 4.79232 14.5814C3.61685 14.5469 2.46697 14.2298 1.44 13.6569V13.7505C1.44047 15.4558 2.03078 17.1084 3.11081 18.428C4.19084 19.7477 5.69409 20.6532 7.3656 20.9908C6.27822 21.2874 5.13731 21.3308 4.03056 21.1175C4.50272 22.585 5.42164 23.8683 6.65886 24.7879C7.89607 25.7076 9.38974 26.2177 10.931 26.2468C9.39966 27.4505 7.64597 28.3405 5.77031 28.8658C3.89465 29.3911 1.93382 29.5415 0 29.3083C3.37775 31.4758 7.30789 32.6255 11.3213 32.6203" fill="#1DA1F2"/>
</svg>
