<svg width="56" height="59" viewBox="0 0 56 59" fill="none" xmlns="http://www.w3.org/2000/svg">
<path d="M30.8843 44.09C30.8843 44.7608 30.6969 45.4165 30.3459 45.9742C29.9948 46.532 29.4958 46.9667 28.912 47.2234C28.3282 47.4801 27.6858 47.5472 27.0661 47.4164C26.4463 47.2855 25.877 46.9625 25.4302 46.4882C24.9834 46.0138 24.6791 45.4095 24.5558 44.7516C24.4326 44.0937 24.4958 43.4118 24.7376 42.7921C24.9795 42.1724 25.389 41.6427 25.9144 41.27C26.4398 40.8974 27.0575 40.6984 27.6894 40.6984C28.5367 40.6984 29.3494 41.0558 29.9485 41.6918C30.5477 42.3278 30.8843 43.1905 30.8843 44.09ZM27.6894 13.5661C21.816 13.5661 17.0396 18.1306 17.0396 23.7408V24.8713C17.0396 25.4709 17.264 26.046 17.6635 26.4701C18.0629 26.8941 18.6047 27.1323 19.1696 27.1323C19.7345 27.1323 20.2762 26.8941 20.6757 26.4701C21.0751 26.046 21.2995 25.4709 21.2995 24.8713V23.7408C21.2995 20.6319 24.167 18.0882 27.6894 18.0882C31.2118 18.0882 34.0792 20.6319 34.0792 23.7408C34.0792 26.8497 31.2118 29.3933 27.6894 29.3933C27.1245 29.3933 26.5827 29.6315 26.1833 30.0556C25.7838 30.4796 25.5594 31.0547 25.5594 31.6544V33.9154C25.5594 34.515 25.7838 35.0901 26.1833 35.5142C26.5827 35.9382 27.1245 36.1764 27.6894 36.1764C28.2543 36.1764 28.796 35.9382 29.1955 35.5142C29.5949 35.0901 29.8193 34.515 29.8193 33.9154V33.7119C34.6756 32.7651 38.3391 28.6528 38.3391 23.7408C38.3391 18.1306 33.5627 13.5661 27.6894 13.5661ZM55.3787 29.3933C55.3787 35.2068 53.7548 40.8897 50.7122 45.7234C47.6697 50.5571 43.3452 54.3245 38.2856 56.5492C33.2261 58.7739 27.6587 59.356 22.2874 58.2219C16.9162 57.0877 11.9825 54.2883 8.11004 50.1775C4.23761 46.0668 1.60046 40.8294 0.532056 35.1277C-0.536344 29.4259 0.0119974 23.5159 2.10774 18.145C4.20348 12.7741 7.7525 8.18345 12.306 4.95367C16.8595 1.72389 22.2129 0 27.6894 0C35.0307 0.00822962 42.0691 3.10766 47.2601 8.61819C52.4512 14.1287 55.371 21.6003 55.3787 29.3933ZM51.1188 29.3933C51.1188 24.4743 49.7447 19.6656 47.1703 15.5756C44.5958 11.4855 40.9366 8.29771 36.6554 6.41526C32.3743 4.53281 27.6634 4.04028 23.1185 4.99994C18.5736 5.95961 14.3989 8.32837 11.1222 11.8067C7.84557 15.285 5.61413 19.7166 4.7101 24.5412C3.80607 29.3657 4.27005 34.3665 6.04338 38.9112C7.8167 43.4558 10.8197 47.3401 14.6727 50.073C18.5256 52.8059 23.0555 54.2646 27.6894 54.2646C33.9011 54.2571 39.8564 51.6344 44.2487 46.9717C48.6411 42.3091 51.1118 35.9873 51.1188 29.3933Z" fill="url(#paint0_linear_16_133)"/>
<defs>
<linearGradient id="paint0_linear_16_133" x1="27.6894" y1="9.18017e-07" x2="91.4117" y2="117.376" gradientUnits="userSpaceOnUse">
<stop stop-color="#C6922B"/>
<stop offset="1" stop-opacity="0"/>
</linearGradient>
</defs>
</svg>
