<svg width="64" height="49" viewBox="0 0 64 49" fill="none" xmlns="http://www.w3.org/2000/svg">
<path d="M63.8985 24.2759C63.9118 29.5336 62.2663 34.6516 59.2129 38.8498C59.0447 39.0818 58.8341 39.2771 58.5931 39.4247C58.3521 39.5722 58.0855 39.6692 57.8083 39.7099C57.5312 39.7507 57.249 39.7344 56.978 39.6621C56.7069 39.5898 56.4522 39.4629 56.2285 39.2886C56.0047 39.1143 55.8163 38.896 55.6739 38.6462C55.5315 38.3964 55.438 38.1199 55.3987 37.8327C55.3594 37.5454 55.3751 37.2529 55.4448 36.9719C55.5145 36.6909 55.637 36.4269 55.8052 36.195C58.3046 32.7626 59.651 28.5763 59.6388 24.2759C59.6388 19.0061 57.6193 13.9522 54.0245 10.2259C50.4298 6.49956 45.5542 4.40615 40.4705 4.40615C35.3867 4.40615 30.5111 6.49956 26.9164 10.2259C23.3216 13.9522 21.3021 19.0061 21.3021 24.2759C21.3021 24.8614 21.0777 25.423 20.6783 25.837C20.2789 26.251 19.7371 26.4836 19.1723 26.4836C18.6074 26.4836 18.0657 26.251 17.6663 25.837C17.2669 25.423 17.0425 24.8614 17.0425 24.2759C17.0414 22.0479 17.3361 19.8304 17.9183 17.6858C17.6282 17.6526 17.3353 17.6526 17.0425 17.6526C13.6533 17.6526 10.4029 19.0483 8.00641 21.5325C5.6099 24.0167 4.26355 27.386 4.26355 30.8991C4.26355 34.4123 5.6099 37.7816 8.00641 40.2658C10.4029 42.75 13.6533 44.1457 17.0425 44.1457H23.4319C23.9968 44.1457 24.5385 44.3783 24.9379 44.7923C25.3373 45.2063 25.5617 45.7679 25.5617 46.3534C25.5617 46.9389 25.3373 47.5005 24.9379 47.9145C24.5385 48.3286 23.9968 48.5612 23.4319 48.5612H17.0425C14.7001 48.5617 12.3828 48.0616 10.2353 47.0922C8.08781 46.1227 6.1562 44.7046 4.56112 42.9266C2.96605 41.1485 1.74178 39.0486 0.964775 36.758C0.187771 34.4675 -0.125279 32.0354 0.0451777 29.6138C0.215635 27.1922 0.865937 24.8331 1.95547 22.6837C3.045 20.5343 4.55036 18.6409 6.37753 17.1217C8.2047 15.6024 10.3144 14.49 12.575 13.854C14.8355 13.2179 17.1983 13.0718 19.5157 13.4248C21.8755 8.53231 25.7597 4.60891 30.5389 2.29011C35.3182 -0.0287026 40.7127 -0.60711 45.8486 0.64857C50.9845 1.90425 55.5611 4.92048 58.8371 9.20869C62.113 13.4969 63.8964 18.806 63.8985 24.2759ZM45.3531 35.9604L40.4705 41.0244V24.2759C40.4705 23.6904 40.2461 23.1288 39.8467 22.7148C39.4472 22.3008 38.9055 22.0681 38.3406 22.0681C37.7758 22.0681 37.2341 22.3008 36.8346 22.7148C36.4352 23.1288 36.2108 23.6904 36.2108 24.2759V41.0244L31.3282 35.9604C30.9286 35.5462 30.3865 35.3134 29.8214 35.3134C29.2562 35.3134 28.7142 35.5462 28.3145 35.9604C27.9149 36.3747 27.6904 36.9365 27.6904 37.5224C27.6904 38.1083 27.9149 38.6701 28.3145 39.0844L36.8338 47.9154C37.0316 48.1207 37.2665 48.2835 37.5251 48.3946C37.7836 48.5057 38.0608 48.5629 38.3406 48.5629C38.6205 48.5629 38.8977 48.5057 39.1562 48.3946C39.4148 48.2835 39.6497 48.1207 39.8475 47.9154L48.3668 39.0844C48.7664 38.6701 48.9909 38.1083 48.9909 37.5224C48.9909 36.9365 48.7664 36.3747 48.3668 35.9604C47.9671 35.5462 47.4251 35.3134 46.8599 35.3134C46.2947 35.3134 45.7527 35.5462 45.3531 35.9604Z" fill="url(#paint0_linear_16_126)"/>
<defs>
<linearGradient id="paint0_linear_16_126" x1="31.9493" y1="-2.47603e-06" x2="94.3792" y2="141.67" gradientUnits="userSpaceOnUse">
<stop stop-color="#C6922B"/>
<stop offset="1" stop-opacity="0"/>
</linearGradient>
</defs>
</svg>
