<svg width="54" height="58" viewBox="0 0 54 58" fill="none" xmlns="http://www.w3.org/2000/svg">
<path d="M48.6201 0H4.60112C3.43366 0 2.31402 0.481131 1.48851 1.33755C0.662989 2.19397 0.199219 3.35553 0.199219 4.56669V21.3435C0.199219 46.9198 21.0587 55.4053 25.235 56.8467C26.127 57.1614 27.0942 57.1614 27.9862 56.8467C32.168 55.4053 53.022 46.9198 53.022 21.3435V4.56669C53.022 3.35553 52.5582 2.19397 51.7327 1.33755C50.9072 0.481131 49.7876 0 48.6201 0ZM48.6201 21.3464C48.6201 43.7289 30.366 51.2068 26.6106 52.5083C22.8883 51.2211 4.60112 43.7489 4.60112 21.3464V4.56669H48.6201V21.3464ZM14.0487 29.0156C13.6357 28.5871 13.4037 28.006 13.4037 27.4001C13.4037 26.7942 13.6357 26.2131 14.0487 25.7847C14.4617 25.3562 15.0218 25.1155 15.6059 25.1155C16.1899 25.1155 16.7501 25.3562 17.163 25.7847L22.2087 31.0192L36.0582 16.6513C36.2627 16.4391 36.5054 16.2708 36.7726 16.156C37.0398 16.0412 37.3262 15.9821 37.6154 15.9821C37.9046 15.9821 38.1909 16.0412 38.4581 16.156C38.7253 16.2708 38.968 16.4391 39.1725 16.6513C39.377 16.8634 39.5392 17.1153 39.6499 17.3925C39.7606 17.6696 39.8175 17.9667 39.8175 18.2667C39.8175 18.5668 39.7606 18.8638 39.6499 19.141C39.5392 19.4182 39.377 19.6701 39.1725 19.8822L23.7659 35.8656C23.5615 36.0779 23.3187 36.2463 23.0515 36.3612C22.7844 36.4761 22.498 36.5353 22.2087 36.5353C21.9195 36.5353 21.6331 36.4761 21.3659 36.3612C21.0987 36.2463 20.856 36.0779 20.6515 35.8656L14.0487 29.0156Z" fill="url(#paint0_linear_16_130)"/>
<defs>
<linearGradient id="paint0_linear_16_130" x1="26.6106" y1="-6.6108e-07" x2="74.2088" y2="141.838" gradientUnits="userSpaceOnUse">
<stop stop-color="#C6922B"/>
<stop offset="1" stop-opacity="0"/>
</linearGradient>
</defs>
</svg>
